<?xml version="1.0" encoding="UTF-8"?>
<svg width="50px" height="50px" viewBox="0 0 50 50" version="1.1" xmlns="http://www.w3.org/2000/svg" xmlns:xlink="http://www.w3.org/1999/xlink">
    <!-- Generator: Sketch 51 (57462) - http://www.bohemiancoding.com/sketch -->
    <title>ic_outage_planned</title>
    <desc>Created with Sketch.</desc>
    <defs>
        <path d="M24.9791667,4.16666667 C13.4791667,4.16666667 4.16666667,13.5 4.16666667,25 C4.16666667,36.5 13.4791667,45.8333333 24.9791667,45.8333333 C36.5,45.8333333 45.8333333,36.5 45.8333333,25 C45.8333333,13.5 36.5,4.16666667 24.9791667,4.16666667 Z M25,41.6666667 C15.7916667,41.6666667 8.33333333,34.2083333 8.33333333,25 C8.33333333,15.7916667 15.7916667,8.33333333 25,8.33333333 C34.2083333,8.33333333 41.6666667,15.7916667 41.6666667,25 C41.6666667,34.2083333 34.2083333,41.6666667 25,41.6666667 Z" id="path-1"></path>
        <polygon id="path-3" points="26.0416667 14.5833333 22.9166667 14.5833333 22.9166667 27.0833333 33.8541667 33.6458333 35.4166667 31.0833333 26.0416667 25.5208333"></polygon>
    </defs>
    <g id="Page-1" stroke="none" stroke-width="1" fill="none" fill-rule="evenodd">
        <g id="1.-Outage-list" transform="translate(-294.000000, -58.000000)">
            <g id="List-item" transform="translate(0.000000, 40.000000)">
                <g id="Icon-/-Access-Time-/-Filled" transform="translate(294.000000, 18.000000)">
                    <mask id="mask-2" fill="white">
                        <use xlink:href="#path-1"></use>
                    </mask>
                    <g id="Mask" fill-rule="nonzero"></g>
                    <g id="✱-/-Color-/-Icons-/-Selected-/-On-Surface-/-Inactive" mask="url(#mask-2)" fill="#000000" fill-opacity="0.54" fill-rule="evenodd">
                        <rect id="Rectangle" x="0" y="0" width="50" height="50"></rect>
                    </g>
                    <mask id="mask-4" fill="white">
                        <use xlink:href="#path-3"></use>
                    </mask>
                    <g id="Shape" fill-rule="nonzero"></g>
                    <g id="✱-/-Color-/-Icons-/-Selected-/-On-Surface-/-Inactive" mask="url(#mask-4)" fill="#000000" fill-opacity="0.54" fill-rule="evenodd">
                        <rect id="Rectangle" x="0" y="0" width="50" height="50"></rect>
                    </g>
                </g>
            </g>
        </g>
    </g>
</svg>